<svg width="17" height="17" viewBox="0 0 17 17" fill="none" xmlns="http://www.w3.org/2000/svg">
<path d="M13.4921 15.4742V16.6647H3.1746V15.4742H13.4921ZM15.4762 13.4901V7.14089C15.4762 6.04509 14.5879 5.15676 13.4921 5.15676H3.1746C2.0788 5.15676 1.19048 6.04509 1.19048 7.14089V13.4901C1.19048 14.5859 2.0788 15.4742 3.1746 15.4742V16.6647L3.01107 16.6608C1.33378 16.5757 0 15.1885 0 13.4901V7.14089C0 5.38761 1.42132 3.96629 3.1746 3.96629H13.4921C15.2453 3.96629 16.6667 5.38761 16.6667 7.14089V13.4901L16.6628 13.6536C16.5804 15.2768 15.2787 16.5785 13.6556 16.6608L13.4921 16.6647V15.4742C14.5879 15.4742 15.4762 14.5859 15.4762 13.4901Z" fill="#FF5757"/>
<path d="M3.96825 13.0933C3.96825 12.8741 3.79059 12.6964 3.57143 12.6964C3.35227 12.6964 3.1746 12.8741 3.1746 13.0933C3.1746 13.3124 3.35227 13.4901 3.57143 13.4901C3.79059 13.4901 3.96825 13.3124 3.96825 13.0933ZM4.7619 13.0933C4.7619 13.7508 4.22891 14.2837 3.57143 14.2837C2.91395 14.2837 2.38095 13.7508 2.38095 13.0933C2.38095 12.4358 2.91395 11.9028 3.57143 11.9028C4.22891 11.9028 4.7619 12.4358 4.7619 13.0933Z" fill="#FF5757"/>
<path d="M7.14286 13.0933C7.14286 12.8741 6.96519 12.6964 6.74603 12.6964C6.52687 12.6964 6.34921 12.8741 6.34921 13.0933C6.34921 13.3124 6.52687 13.4901 6.74603 13.4901C6.96519 13.4901 7.14286 13.3124 7.14286 13.0933ZM7.93651 13.0933C7.93651 13.7508 7.40351 14.2837 6.74603 14.2837C6.08855 14.2837 5.55556 13.7508 5.55556 13.0933C5.55556 12.4358 6.08855 11.9028 6.74603 11.9028C7.40351 11.9028 7.93651 12.4358 7.93651 13.0933Z" fill="#FF5757"/>
<path d="M13.4921 12.2996C13.4921 11.6421 12.9591 11.1091 12.3016 11.1091C11.6441 11.1091 11.1111 11.6421 11.1111 12.2996C11.1111 12.9571 11.6441 13.4901 12.3016 13.4901C12.9591 13.4901 13.4921 12.9571 13.4921 12.2996ZM14.2857 12.2996C14.2857 13.3954 13.3974 14.2837 12.3016 14.2837C11.2058 14.2837 10.3175 13.3954 10.3175 12.2996C10.3175 11.2038 11.2058 10.3155 12.3016 10.3155C13.3974 10.3155 14.2857 11.2038 14.2857 12.2996Z" fill="#FF5757"/>
<path d="M3.96825 8.56931C3.96825 8.64615 4.02284 8.71044 4.09536 8.72509L4.12714 8.72819H12.5395C12.6272 8.72819 12.6984 8.65697 12.6984 8.56931V7.29978C12.6984 7.21211 12.6272 7.14089 12.5395 7.14089V6.34724C13.0655 6.34724 13.4921 6.77379 13.4921 7.29978V8.56931C13.4921 9.09529 13.0655 9.52184 12.5395 9.52184H4.12714C3.63406 9.52184 3.22807 9.14716 3.17925 8.66696L3.1746 8.56931V7.29978C3.1746 6.77379 3.60115 6.34724 4.12714 6.34724V7.14089L4.09536 7.14399C4.02284 7.15865 3.96825 7.22294 3.96825 7.29978V8.56931ZM12.5395 6.34724V7.14089H4.12714V6.34724H12.5395Z" fill="#FF5757"/>
<path d="M12.4374 0.0484708C12.7395 -0.0812717 13.0895 0.0584153 13.2192 0.360471C13.349 0.662526 13.2093 1.01257 12.9072 1.14231L3.80616 5.05152C3.50411 5.18126 3.15407 5.04158 3.02432 4.73952C2.89458 4.43747 3.03427 4.08742 3.33632 3.95768L12.4374 0.0484708Z" fill="#FF5757"/>
<path d="M10.7143 7.14089C10.7143 6.92173 10.8919 6.74406 11.1111 6.74406C11.3303 6.74406 11.5079 6.92173 11.5079 7.14089V8.72819C11.5079 8.94735 11.3303 9.12502 11.1111 9.12502C10.8919 9.12502 10.7143 8.94735 10.7143 8.72819V7.14089Z" fill="#FF5757"/>
</svg>
